<svg xmlns="http://www.w3.org/2000/svg" width="12" height="12" viewBox="0 0 12 12">
  <path fill="rgb(255,255,255)" fill-rule="evenodd" d="M10.18181818 0H1.81818182C.81469727 0 0 .81469727 0 1.81818182v8.36363636C0 11.18530273.81469727 12 1.81818182 12h8.36363636C11.18530273 12 12 11.18530273 12 10.18181818V1.81818182C12 .81469727 11.18530273 0 10.18181818 0zM2.22727273 1.5C1.8256059 1.5 1.5 1.82561701 1.5 2.22727273 1.5 6.79616477 5.20382413 10.5 9.77272727 10.5 10.1743941 10.5 10.5 10.17438299 10.5 9.77272727V2.5909091C10.5 1.98841442 10.01158558 1.5 9.4090909 1.5H2.22727274z"/>
</svg>
