<svg xmlns="http://www.w3.org/2000/svg" width="18" height="18" viewBox="0 0 18 18">
  <defs>
    <linearGradient id="linearGradient-2" x1="9" x2="9" y1="0" y2="18" gradientUnits="userSpaceOnUse">
      <stop offset="0" stop-color="rgb(255,152,0)"/>
      <stop offset="1" stop-color="rgb(84,41,228)"/>
    </linearGradient>
  </defs>
  <path fill="url(#linearGradient-2)" fill-rule="evenodd" d="M2.72727013 0h12.54545402C16.7779541 0 18 1.2220459 18 2.72727585v12.5454483C18 16.7779541 16.7779541 18 15.27272415 18H2.72727013C1.2220459 18 0 16.7779541 0 15.27272415V2.72727585C0 1.2220459 1.2220459 0 2.72727013 0zM2.25 3.34090805C2.25 2.7384224 2.73841095 2.25 3.34090805 2.25H14.1136322C15.01737213 2.25 15.75 2.98261642 15.75 3.8863678v10.77272415C15.75 15.2615776 15.26158905 15.75 14.65909195 15.75 7.80574035 15.75 2.25 10.1942482 2.25 3.34090805z"/>
</svg>
